<svg width="24" height="24" viewBox="0 0 24 24" fill="none" xmlns="http://www.w3.org/2000/svg">
<path d="M20.9957 8.90922C20.9957 7.98626 20.9957 7.06762 20.9957 6.14467C20.9957 5.72632 20.8318 5.20446 20.0598 5.10527C19.8959 5.0837 19.732 5.06645 19.5724 5.04489C19.0721 4.98882 18.602 4.93275 18.1449 4.82924C16.3594 4.43677 14.6471 3.63889 12.7495 2.31915C12.495 2.14232 12.2923 2 12.0034 2C11.7144 2 11.5031 2.14664 11.2615 2.31484C8.72557 4.06586 6.43113 4.95432 4.04611 5.10095C3.31724 5.14839 3.0024 5.4848 3.0024 6.22661C3.0024 6.8261 3.0024 7.42559 3.0024 8.02508C2.99808 9.68553 2.99808 11.5894 3.01533 13.28C3.01965 13.8752 3.09728 14.4919 3.2396 15.1173C3.57169 16.5707 4.33507 17.8862 5.57287 19.1326C7.14706 20.7197 9.12236 21.9489 11.6152 22.8891C11.7273 22.9322 11.8567 22.9538 11.9904 22.9538C12.1543 22.9538 12.3268 22.9193 12.4691 22.8546C12.6158 22.7899 12.7624 22.7295 12.9091 22.6648C13.5215 22.4017 14.1512 22.13 14.7593 21.8109C16.7734 20.7456 18.2915 19.4949 19.4042 17.9854C20.3833 16.657 20.8879 15.3243 20.9526 13.914C20.9655 13.6337 20.9741 13.3361 20.9784 13.004C20.9784 12.9997 20.9784 12.9911 20.9784 12.9867L21 9.99606C21 9.98312 21 9.97018 21 9.96156V9.90549L20.9957 8.90922Z" fill="url(#paint0_linear_178_440)"/>
<path d="M10 21.5V16" stroke="#FAFAFA"/>
<path d="M12 22V12.4142C12 12.149 11.8946 11.8946 11.7071 11.7071L10.2929 10.2929C10.1054 10.1054 10 9.851 10 9.58579V8" stroke="#FAFAFA"/>
<path d="M14 21.5V14.4142C14 14.149 14.1054 13.8946 14.2929 13.7071L15.7071 12.2929C15.8946 12.1054 16 11.851 16 11.5858V10" stroke="#FAFAFA"/>
<circle cx="10" cy="8" r="0.5" stroke="#FAFAFA"/>
<circle cx="16" cy="10" r="0.5" stroke="#FAFAFA"/>
<circle cx="10" cy="16" r="0.5" stroke="#FAFAFA"/>
<path d="M20.4957 8.91138L20.4957 8.90922L20.4957 8.90381V8.8984V8.89299V8.88759V8.88218V8.87677V8.87136V8.86596V8.86055V8.85514V8.84974V8.84433V8.83892V8.83352V8.82811V8.8227V8.8173V8.81189V8.80648V8.80108V8.79567V8.79027V8.78486V8.77945V8.77405V8.76864V8.76324V8.75783V8.75243V8.74702V8.74162V8.73621V8.73081V8.7254V8.72V8.71459V8.70919V8.70378V8.69838V8.69297V8.68757V8.68217V8.67676V8.67136V8.66595V8.66055V8.65515V8.64974V8.64434V8.63894V8.63353V8.62813V8.62273V8.61732V8.61192V8.60652V8.60111V8.59571V8.59031V8.5849V8.5795V8.5741V8.5687V8.56329V8.55789V8.55249V8.54709V8.54169V8.53628V8.53088V8.52548V8.52008V8.51468V8.50927V8.50387V8.49847V8.49307V8.48767V8.48227V8.47687V8.47146V8.46606V8.46066V8.45526V8.44986V8.44446V8.43906V8.43366V8.42826V8.42286V8.41746V8.41205V8.40665V8.40125V8.39585V8.39045V8.38505V8.37965V8.37425V8.36885V8.36345V8.35805V8.35265V8.34725V8.34185V8.33645V8.33105V8.32565V8.32026V8.31486V8.30946V8.30406V8.29866V8.29326V8.28786V8.28246V8.27706V8.27166V8.26626V8.26086V8.25547V8.25007V8.24467V8.23927V8.23387V8.22847V8.22307V8.21768V8.21228V8.20688V8.20148V8.19608V8.19068V8.18529V8.17989V8.17449V8.16909V8.16369V8.1583V8.1529V8.1475V8.1421V8.1367V8.13131V8.12591V8.12051V8.11511V8.10972V8.10432V8.09892V8.09352V8.08813V8.08273V8.07733V8.07193V8.06654V8.06114V8.05574V8.05034V8.04495V8.03955V8.03415V8.02876V8.02336V8.01796V8.01257V8.00717V8.00177V7.99638V7.99098V7.98558V7.98019V7.97479V7.96939V7.964V7.9586V7.9532V7.94781V7.94241V7.93701V7.93162V7.92622V7.92082V7.91543V7.91003V7.90463V7.89924V7.89384V7.88845V7.88305V7.87765V7.87226V7.86686V7.86147V7.85607V7.85067V7.84528V7.83988V7.83449V7.82909V7.82369V7.8183V7.8129V7.80751V7.80211V7.79672V7.79132V7.78592V7.78053V7.77513V7.76974V7.76434V7.75894V7.75355V7.74815V7.74276V7.73736V7.73197V7.72657V7.72118V7.71578V7.71038V7.70499V7.69959V7.6942V7.6888V7.68341V7.67801V7.67262V7.66722V7.66183V7.65643V7.65103V7.64564V7.64024V7.63485V7.62945V7.62406V7.61866V7.61327V7.60787V7.60248V7.59708V7.59169V7.58629V7.58089V7.5755V7.5701V7.56471V7.55931V7.55392V7.54852V7.54313V7.53773V7.53234V7.52694V7.52155V7.51615V7.51076V7.50536V7.49997V7.49457V7.48917V7.48378V7.47838V7.47299V7.46759V7.4622V7.4568V7.45141V7.44601V7.44062V7.43522V7.42983V7.42443V7.41904V7.41364V7.40824V7.40285V7.39745V7.39206V7.38666V7.38127V7.37587V7.37048V7.36508V7.35969V7.35429V7.34889V7.3435V7.3381V7.33271V7.32731V7.32192V7.31652V7.31113V7.30573V7.30033V7.29494V7.28954V7.28415V7.27875V7.27336V7.26796V7.26256V7.25717V7.25177V7.24638V7.24098V7.23559V7.23019V7.22479V7.2194V7.214V7.20861V7.20321V7.19781V7.19242V7.18702V7.18163V7.17623V7.17083V7.16544V7.16004V7.15465V7.14925V7.14385V7.13846V7.13306V7.12766V7.12227V7.11687V7.11147V7.10608V7.10068V7.09528V7.08989V7.08449V7.0791V7.0737V7.0683V7.06291V7.05751V7.05211V7.04671V7.04132V7.03592V7.03052V7.02513V7.01973V7.01433V7.00894V7.00354V6.99814V6.99274V6.98735V6.98195V6.97655V6.97116V6.96576V6.96036V6.95496V6.94957V6.94417V6.93877V6.93337V6.92798V6.92258V6.91718V6.91178V6.90638V6.90099V6.89559V6.89019V6.88479V6.8794V6.874V6.8686V6.8632V6.8578V6.8524V6.84701V6.84161V6.83621V6.83081V6.82541V6.82001V6.81461V6.80922V6.80382V6.79842V6.79302V6.78762V6.78222V6.77682V6.77142V6.76602V6.76063V6.75523V6.74983V6.74443V6.73903V6.73363V6.72823V6.72283V6.71743V6.71203V6.70663V6.70123V6.69583V6.69043V6.68503V6.67963V6.67423V6.66883V6.66343V6.65803V6.65263V6.64723V6.64183V6.63643V6.63103V6.62563V6.62023V6.61483V6.60943V6.60402V6.59862V6.59322V6.58782V6.58242V6.57702V6.57162V6.56622V6.56081V6.55541V6.55001V6.54461V6.53921V6.53381V6.5284V6.523V6.5176V6.5122V6.5068V6.50139V6.49599V6.49059V6.48519V6.47978V6.47438V6.46898V6.46358V6.45817V6.45277V6.44737V6.44197V6.43656V6.43116V6.42576V6.42035V6.41495V6.40954V6.40414V6.39874V6.39333V6.38793V6.38253V6.37712V6.37172V6.36631V6.36091V6.35551V6.3501V6.3447V6.33929V6.33389V6.32848V6.32308V6.31767V6.31227V6.30686V6.30146V6.29605V6.29065V6.28524V6.27984V6.27443V6.26902V6.26362V6.25821V6.25281V6.2474V6.24199V6.23659V6.23118V6.22578V6.22037V6.21496V6.20956V6.20415V6.19874V6.19333V6.18793V6.18252V6.17711V6.17171V6.1663V6.16089V6.15548V6.15007V6.14467C20.4957 5.99185 20.4644 5.87261 20.4085 5.79323C20.3647 5.73102 20.2669 5.63598 19.9961 5.60119L19.9946 5.601C19.9411 5.59395 19.8633 5.58458 19.7819 5.57476C19.6854 5.56313 19.5837 5.55088 19.5112 5.54116C19.0152 5.48554 18.5215 5.42706 18.036 5.31725C16.1724 4.90738 14.4009 4.07668 12.464 2.72964C12.188 2.53782 12.1113 2.5 12.0034 2.5C11.8948 2.5 11.8084 2.54328 11.5473 2.72514L11.5456 2.72629C8.95681 4.51381 6.57645 5.44613 4.07773 5.59995C3.77599 5.61972 3.66386 5.69353 3.61721 5.74374C3.56964 5.79494 3.5024 5.91596 3.5024 6.22661V6.23012V6.23364V6.23715V6.24066V6.24418V6.24769V6.2512V6.25471V6.25823V6.26174V6.26525V6.26876V6.27228V6.27579V6.2793V6.28281V6.28633V6.28984V6.29335V6.29686V6.30038V6.30389V6.3074V6.31091V6.31443V6.31794V6.32145V6.32497V6.32848V6.33199V6.3355V6.33902V6.34253V6.34604V6.34955V6.35307V6.35658V6.36009V6.3636V6.36712V6.37063V6.37414V6.37766V6.38117V6.38468V6.38819V6.39171V6.39522V6.39873V6.40224V6.40576V6.40927V6.41278V6.41629V6.41981V6.42332V6.42683V6.43034V6.43386V6.43737V6.44088V6.4444V6.44791V6.45142V6.45493V6.45845V6.46196V6.46547V6.46898V6.4725V6.47601V6.47952V6.48303V6.48655V6.49006V6.49357V6.49708V6.5006V6.50411V6.50762V6.51114V6.51465V6.51816V6.52167V6.52519V6.5287V6.53221V6.53572V6.53924V6.54275V6.54626V6.54977V6.55329V6.5568V6.56031V6.56382V6.56734V6.57085V6.57436V6.57788V6.58139V6.5849V6.58841V6.59193V6.59544V6.59895V6.60246V6.60598V6.60949V6.613V6.61651V6.62003V6.62354V6.62705V6.63056V6.63408V6.63759V6.6411V6.64462V6.64813V6.65164V6.65515V6.65867V6.66218V6.66569V6.6692V6.67272V6.67623V6.67974V6.68325V6.68677V6.69028V6.69379V6.6973V6.70082V6.70433V6.70784V6.71136V6.71487V6.71838V6.72189V6.72541V6.72892V6.73243V6.73594V6.73946V6.74297V6.74648V6.74999V6.75351V6.75702V6.76053V6.76404V6.76756V6.77107V6.77458V6.7781V6.78161V6.78512V6.78863V6.79215V6.79566V6.79917V6.80268V6.8062V6.80971V6.81322V6.81673V6.82025V6.82376V6.82727V6.83078V6.8343V6.83781V6.84132V6.84483V6.84835V6.85186V6.85537V6.85889V6.8624V6.86591V6.86942V6.87294V6.87645V6.87996V6.88347V6.88699V6.8905V6.89401V6.89752V6.90104V6.90455V6.90806V6.91157V6.91509V6.9186V6.92211V6.92563V6.92914V6.93265V6.93616V6.93968V6.94319V6.9467V6.95021V6.95373V6.95724V6.96075V6.96426V6.96778V6.97129V6.9748V6.97831V6.98183V6.98534V6.98885V6.99237V6.99588V6.99939V7.0029V7.00642V7.00993V7.01344V7.01695V7.02047V7.02398V7.02749V7.031V7.03452V7.03803V7.04154V7.04505V7.04857V7.05208V7.05559V7.05911V7.06262V7.06613V7.06964V7.07316V7.07667V7.08018V7.08369V7.08721V7.09072V7.09423V7.09774V7.10126V7.10477V7.10828V7.11179V7.11531V7.11882V7.12233V7.12585V7.12936V7.13287V7.13638V7.1399V7.14341V7.14692V7.15043V7.15395V7.15746V7.16097V7.16448V7.168V7.17151V7.17502V7.17853V7.18205V7.18556V7.18907V7.19259V7.1961V7.19961V7.20312V7.20664V7.21015V7.21366V7.21717V7.22069V7.2242V7.22771V7.23122V7.23474V7.23825V7.24176V7.24528V7.24879V7.2523V7.25581V7.25933V7.26284V7.26635V7.26986V7.27338V7.27689V7.2804V7.28391V7.28743V7.29094V7.29445V7.29796V7.30148V7.30499V7.3085V7.31202V7.31553V7.31904V7.32255V7.32607V7.32958V7.33309V7.3366V7.34012V7.34363V7.34714V7.35065V7.35417V7.35768V7.36119V7.3647V7.36822V7.37173V7.37524V7.37875V7.38227V7.38578V7.38929V7.39281V7.39632V7.39983V7.40334V7.40686V7.41037V7.41388V7.41739V7.42091V7.42442V7.42793V7.43144V7.43496V7.43847V7.44198V7.44549V7.44901V7.45252V7.45603V7.45955V7.46306V7.46657V7.47008V7.4736V7.47711V7.48062V7.48413V7.48765V7.49116V7.49467V7.49818V7.5017V7.50521V7.50872V7.51223V7.51575V7.51926V7.52277V7.52629V7.5298V7.53331V7.53682V7.54034V7.54385V7.54736V7.55087V7.55439V7.5579V7.56141V7.56492V7.56844V7.57195V7.57546V7.57897V7.58249V7.586V7.58951V7.59303V7.59654V7.60005V7.60356V7.60708V7.61059V7.6141V7.61761V7.62113V7.62464V7.62815V7.63166V7.63518V7.63869V7.6422V7.64571V7.64923V7.65274V7.65625V7.65977V7.66328V7.66679V7.6703V7.67382V7.67733V7.68084V7.68435V7.68787V7.69138V7.69489V7.6984V7.70192V7.70543V7.70894V7.71245V7.71597V7.71948V7.72299V7.72651V7.73002V7.73353V7.73704V7.74056V7.74407V7.74758V7.75109V7.75461V7.75812V7.76163V7.76514V7.76866V7.77217V7.77568V7.77919V7.78271V7.78622V7.78973V7.79325V7.79676V7.80027V7.80378V7.8073V7.81081V7.81432V7.81783V7.82135V7.82486V7.82837V7.83188V7.8354V7.83891V7.84242V7.84593V7.84945V7.85296V7.85647V7.85999V7.8635V7.86701V7.87052V7.87404V7.87755V7.88106V7.88457V7.88809V7.8916V7.89511V7.89862V7.90214V7.90565V7.90916V7.91267V7.91619V7.9197V7.92321V7.92672V7.93024V7.93375V7.93726V7.94078V7.94429V7.9478V7.95131V7.95483V7.95834V7.96185V7.96536V7.96888V7.97239V7.9759V7.97941V7.98293V7.98644V7.98995V7.99346V7.99698V8.00049V8.004V8.00752V8.01103V8.01454V8.01805V8.02157V8.02508V8.02638C3.49808 9.68624 3.49809 11.5875 3.51531 13.2749L3.51532 13.2764C3.51934 13.831 3.59177 14.4115 3.72713 15.0063L20.4957 8.91138ZM20.4957 8.91138L20.9957 8.90922L20.4957 8.91138ZM5.92764 18.7803L5.92786 18.7805C7.44291 20.308 9.35345 21.5017 11.7916 22.4213L11.7947 22.4224C11.8409 22.4402 11.908 22.4538 11.9904 22.4538C12.0905 22.4538 12.1914 22.4316 12.2622 22.3994L12.2673 22.3971L12.2673 22.3971C12.3434 22.3635 12.4191 22.3313 12.4916 22.3004L12.493 22.2998C12.5667 22.2683 12.6372 22.2383 12.7072 22.2074L12.7117 22.2054L12.7117 22.2054C13.326 21.9415 13.9382 21.6771 14.5264 21.3684C16.4876 20.331 17.9423 19.1259 19.0017 17.6887C19.9317 16.4269 20.3936 15.1875 20.4531 13.8911L20.4531 13.891C20.4657 13.6177 20.4742 13.3267 20.4784 13.0007V13.0007V13.0007V13.0006V13.0006V13.0006V13.0005V13.0005V13.0005V13.0004V13.0004V13.0004V13.0003V13.0003V13.0003V13.0002V13.0002V13.0002V13.0001V13.0001V13V13V13V12.9999V12.9999V12.9999V12.9998V12.9998V12.9998V12.9997V12.9997V12.9997V12.9996V12.9996V12.9996V12.9995V12.9995V12.9995V12.9994V12.9994V12.9993V12.9993V12.9993V12.9992V12.9992V12.9992V12.9991V12.9991V12.9991V12.999V12.999V12.9989V12.9989V12.9989V12.9988V12.9988V12.9988V12.9987V12.9987V12.9987V12.9986V12.9986V12.9985V12.9985V12.9985V12.9984V12.9984V12.9984V12.9983V12.9983V12.9983V12.9982V12.9982V12.9981V12.9981V12.9981V12.998V12.998V12.998V12.9979V12.9979V12.9978V12.9978V12.9978V12.9977V12.9977V12.9977V12.9976V12.9976V12.9976V12.9975V12.9975V12.9974V12.9974V12.9974V12.9973V12.9973V12.9973V12.9972V12.9972V12.9971V12.9971V12.9971V12.997V12.997V12.997V12.9969V12.9969V12.9968V12.9968V12.9968V12.9967V12.9967V12.9967V12.9966V12.9966V12.9965V12.9965V12.9965V12.9964V12.9964V12.9964V12.9963V12.9963V12.9962V12.9962V12.9962V12.9961V12.9961V12.996V12.996V12.996V12.9959V12.9959V12.9959V12.9958V12.9958V12.9957V12.9957V12.9957V12.9956V12.9956V12.9956V12.9955V12.9955V12.9954V12.9954V12.9954V12.9953V12.9953V12.9953V12.9952V12.9952V12.9951V12.9951V12.9951V12.995V12.995V12.9949V12.9949V12.9949V12.9948V12.9948V12.9948V12.9947V12.9947V12.9946V12.9946V12.9946V12.9945V12.9945V12.9945V12.9944V12.9944V12.9943V12.9943V12.9943V12.9942V12.9942V12.9942V12.9941V12.9941V12.994V12.994V12.994V12.9939V12.9939V12.9939V12.9938V12.9938V12.9937V12.9937V12.9937V12.9936V12.9936V12.9936V12.9935V12.9935V12.9934V12.9934V12.9934V12.9933V12.9933V12.9933V12.9932V12.9932V12.9931V12.9931V12.9931V12.993V12.993V12.993V12.9929V12.9929V12.9928V12.9928V12.9928V12.9927V12.9927V12.9927V12.9926V12.9926V12.9925V12.9925V12.9925V12.9924V12.9924V12.9924V12.9923V12.9923V12.9923V12.9922V12.9922V12.9921V12.9921V12.9921V12.992V12.992V12.992V12.9919V12.9919V12.9919V12.9918V12.9918V12.9917V12.9917V12.9917V12.9916V12.9916V12.9916V12.9915V12.9915V12.9915V12.9914V12.9914V12.9914V12.9913V12.9913V12.9912V12.9912V12.9912V12.9911V12.9911V12.9911V12.991V12.991V12.991V12.9909V12.9909V12.9909V12.9908V12.9908V12.9908V12.9907V12.9907V12.9906V12.9906V12.9906V12.9905V12.9905V12.9905V12.9904V12.9904V12.9904V12.9903V12.9903V12.9903V12.9902V12.9902V12.9902V12.9901V12.9901V12.9901V12.99V12.99V12.99V12.9899V12.9899V12.9899V12.9898V12.9898V12.9898V12.9897V12.9897V12.9897V12.9896V12.9896V12.9896V12.9895V12.9895V12.9895V12.9894V12.9894V12.9894V12.9893V12.9893V12.9893V12.9892V12.9892V12.9892V12.9891V12.9891V12.9891V12.989V12.989V12.989V12.9889V12.9889V12.9889V12.9889V12.9888V12.9888V12.9888V12.9887V12.9887V12.9887V12.9886V12.9886V12.9886V12.9885V12.9885V12.9885V12.9885V12.9884V12.9884V12.9884V12.9883V12.9883V12.9883V12.9882V12.9882V12.9882V12.9881V12.9881V12.9881V12.9881V12.988V12.988V12.988V12.9879V12.9879V12.9879V12.9879V12.9878V12.9878V12.9878V12.9877V12.9877V12.9877V12.9877V12.9876V12.9876V12.9876V12.9875V12.9875V12.9875V12.9875V12.9874V12.9874V12.9874V12.9873V12.9873V12.9873V12.9873V12.9872V12.9872V12.9872V12.9872V12.9871V12.9871V12.9871V12.9871V12.987V12.987V12.987V12.9869V12.9869V12.9869V12.9869V12.9868V12.9868V12.9868V12.9868V12.9867V12.9831L20.5 9.99606V9.99598V9.99591V9.99583V9.99576V9.99568V9.9956V9.99553V9.99545V9.99538V9.9953V9.99523V9.99515V9.99507V9.995V9.99492V9.99485V9.99477V9.9947V9.99462V9.99454V9.99447V9.99439V9.99432V9.99424V9.99416V9.99409V9.99401V9.99394V9.99386V9.99379V9.99371V9.99364V9.99356V9.99348V9.99341V9.99333V9.99326V9.99318V9.9931V9.99303V9.99295V9.99288V9.9928V9.99273V9.99265V9.99258V9.9925L5.92764 18.7803ZM5.92764 18.7803C4.74417 17.5885 4.03505 16.3536 3.72714 15.0063L5.92764 18.7803ZM20.5 9.96161V9.96156V9.96161ZM20.5 9.96161V9.96166M20.5 9.96161V9.96166M20.5 9.96166V9.96171M20.5 9.96166V9.96171M20.5 9.96171V9.96176M20.5 9.96171V9.96176M20.5 9.96176V9.96181M20.5 9.96176V9.96181M20.5 9.96181V9.96186M20.5 9.96181V9.96186M20.5 9.96186V9.96191M20.5 9.96186V9.96191M20.5 9.96191V9.96196M20.5 9.96191V9.96196M20.5 9.96196V9.96202M20.5 9.96196V9.96202M20.5 9.96202V9.96207M20.5 9.96202V9.96207M20.5 9.96207V9.96212M20.5 9.96207V9.96212M20.5 9.96212V9.96217M20.5 9.96212V9.96217M20.5 9.96217V9.96222M20.5 9.96217V9.96222M20.5 9.96222V9.96227M20.5 9.96222V9.96227M20.5 9.96227V9.96233M20.5 9.96227V9.96233M20.5 9.96233V9.96238M20.5 9.96233V9.96238M20.5 9.96238V9.96243M20.5 9.96238V9.96243M20.5 9.96243V9.96248M20.5 9.96243V9.96248M20.5 9.96248V9.96253M20.5 9.96248V9.96253M20.5 9.96253V9.96259M20.5 9.96253V9.96259M20.5 9.96259V9.96264M20.5 9.96259V9.96264M20.5 9.96264V9.96269M20.5 9.96264V9.96269M20.5 9.96269V9.96275M20.5 9.96269V9.96275M20.5 9.96275V9.9628M20.5 9.96275V9.9628M20.5 9.9628V9.96285M20.5 9.9628V9.96285M20.5 9.96285V9.9629M20.5 9.96285V9.9629M20.5 9.9629V9.96296M20.5 9.9629V9.96296M20.5 9.96296V9.96301M20.5 9.96296V9.96301M20.5 9.96301V9.96306M20.5 9.96301V9.96306M20.5 9.96306V9.96312M20.5 9.96306V9.96312M20.5 9.96312V9.96317M20.5 9.96312V9.96317M20.5 9.96317V9.96322M20.5 9.96317V9.96322M20.5 9.96322V9.96328M20.5 9.96322V9.96328M20.5 9.96328V9.96333M20.5 9.96328V9.96333M20.5 9.96333V9.96339M20.5 9.96333V9.96339M20.5 9.96339V9.96344M20.5 9.96339V9.96344M20.5 9.96344V9.96349M20.5 9.96344V9.96349M20.5 9.96349V9.96355M20.5 9.96349V9.96355M20.5 9.96355V9.9636M20.5 9.96355V9.9636M20.5 9.9636V9.96366M20.5 9.9636V9.96366M20.5 9.96366V9.96371M20.5 9.96366V9.96371M20.5 9.96371V9.96376M20.5 9.96371V9.96376M20.5 9.96376V9.96382M20.5 9.96376V9.96382M20.5 9.96382V9.96387M20.5 9.96382V9.96387M20.5 9.96387V9.96393M20.5 9.96387V9.96393M20.5 9.96393V9.96398M20.5 9.96393V9.96398M20.5 9.96398V9.96404M20.5 9.96398V9.96404M20.5 9.96404V9.96409M20.5 9.96404V9.96409M20.5 9.96409V9.96415M20.5 9.96409V9.96415M20.5 9.96415V9.9642M20.5 9.96415V9.9642M20.5 9.9642V9.96426M20.5 9.9642V9.96426M20.5 9.96426V9.96431M20.5 9.96426V9.96431M20.5 9.96431V9.96437M20.5 9.96431V9.96437M20.5 9.96437V9.96443M20.5 9.96437V9.96443M20.5 9.96443V9.96448M20.5 9.96443V9.96448M20.5 9.96448V9.96454M20.5 9.96448V9.96454M20.5 9.96454V9.96459M20.5 9.96454V9.96459M20.5 9.96459V9.96465M20.5 9.96459V9.96465M20.5 9.96465V9.9647M20.5 9.96465V9.9647M20.5 9.9647V9.96476M20.5 9.9647V9.96476M20.5 9.96476V9.96482M20.5 9.96476V9.96482M20.5 9.96482V9.96487M20.5 9.96482V9.96487M20.5 9.96487V9.96493M20.5 9.96487V9.96493M20.5 9.96493V9.96499M20.5 9.96493V9.96499M20.5 9.96499V9.96504M20.5 9.96499V9.96504M20.5 9.96504V9.9651M20.5 9.96504V9.9651M20.5 9.9651V9.96516M20.5 9.9651V9.96516M20.5 9.96516V9.96521M20.5 9.96516V9.96521M20.5 9.96521V9.96527M20.5 9.96521V9.96527M20.5 9.96527V9.96533M20.5 9.96527V9.96533M20.5 9.96533V9.96538M20.5 9.96533V9.96538M20.5 9.96538V9.96544M20.5 9.96538V9.96544M20.5 9.96544V9.9655M20.5 9.96544V9.9655M20.5 9.9655V9.96555M20.5 9.9655V9.96555M20.5 9.96555V9.96561M20.5 9.96555V9.96561M20.5 9.96561V9.96567M20.5 9.96561V9.96567M20.5 9.96567V9.96573M20.5 9.96567V9.96573M20.5 9.96573V9.96578M20.5 9.96573V9.96578M20.5 9.96578V9.96584M20.5 9.96578V9.96584M20.5 9.96584V9.9659M20.5 9.96584V9.9659M20.5 9.9659V9.96596M20.5 9.9659V9.96596M20.5 9.96596V9.96602M20.5 9.96596V9.96602M20.5 9.96602V9.96607M20.5 9.96602V9.96607M20.5 9.96607V9.96613M20.5 9.96607V9.96613M20.5 9.96613V9.96619M20.5 9.96613V9.96619M20.5 9.96619V9.96625M20.5 9.96619V9.96625M20.5 9.96625V9.96631M20.5 9.96625V9.96631M20.5 9.96631V9.96636M20.5 9.96631V9.96636M20.5 9.96636V9.96642M20.5 9.96636V9.96642M20.5 9.96642V9.96648M20.5 9.96642V9.96648M20.5 9.96648V9.96654M20.5 9.96648V9.96654M20.5 9.96654V9.9666M20.5 9.96654V9.9666M20.5 9.9666V9.96666M20.5 9.9666V9.96666M20.5 9.96666V9.96672M20.5 9.96666V9.96672M20.5 9.96672V9.96678M20.5 9.96672V9.96678M20.5 9.96678V9.96684M20.5 9.96678V9.96684M20.5 9.96684V9.96689M20.5 9.96684V9.96689M20.5 9.96689V9.96695M20.5 9.96689V9.96695M20.5 9.96695V9.96701M20.5 9.96695V9.96701M20.5 9.96701V9.96707M20.5 9.96701V9.96707M20.5 9.96707V9.96713M20.5 9.96707V9.96713M20.5 9.96713V9.96719M20.5 9.96713V9.96719M20.5 9.96719V9.96725M20.5 9.96719V9.96725M20.5 9.96725V9.96731M20.5 9.96725V9.96731M20.5 9.96731V9.96737M20.5 9.96731V9.96737M20.5 9.96737V9.96743M20.5 9.96737V9.96743M20.5 9.96743V9.96749M20.5 9.96743V9.96749M20.5 9.96749V9.96755M20.5 9.96749V9.96755M20.5 9.96755V9.96761M20.5 9.96755V9.96761M20.5 9.96761V9.96767M20.5 9.96761V9.96767M20.5 9.96767V9.96773M20.5 9.96767V9.96773M20.5 9.96773V9.96779M20.5 9.96773V9.96779M20.5 9.96779V9.96785M20.5 9.96779V9.96785M20.5 9.96785V9.96791M20.5 9.96785V9.96791M20.5 9.96791V9.96797M20.5 9.96791V9.96797M20.5 9.96797V9.96803M20.5 9.96797V9.96803M20.5 9.96803V9.96809M20.5 9.96803V9.96809M20.5 9.96809V9.96816M20.5 9.96809V9.96816M20.5 9.96816V9.96822M20.5 9.96816V9.96822M20.5 9.96822V9.96828M20.5 9.96822V9.96828M20.5 9.96828V9.96834M20.5 9.96828V9.96834M20.5 9.96834V9.9684M20.5 9.96834V9.9684M20.5 9.9684V9.96846M20.5 9.9684V9.96846M20.5 9.96846V9.96852M20.5 9.96846V9.96852M20.5 9.96852V9.96858M20.5 9.96852V9.96858M20.5 9.96858V9.96864M20.5 9.96858V9.96864M20.5 9.96864V9.96871M20.5 9.96864V9.96871M20.5 9.96871V9.96877M20.5 9.96871V9.96877M20.5 9.96877V9.96883M20.5 9.96877V9.96883M20.5 9.96883V9.96889M20.5 9.96883V9.96889M20.5 9.96889V9.96895M20.5 9.96889V9.96895M20.5 9.96895V9.96901M20.5 9.96895V9.96901M20.5 9.96901V9.96908M20.5 9.96901V9.96908M20.5 9.96908V9.96914M20.5 9.96908V9.96914M20.5 9.96914V9.9692M20.5 9.96914V9.9692M20.5 9.9692V9.96926M20.5 9.9692V9.96926M20.5 9.96926V9.96933M20.5 9.96926V9.96933M20.5 9.96933V9.96939M20.5 9.96933V9.96939M20.5 9.96939V9.96945M20.5 9.96939V9.96945M20.5 9.96945V9.96951M20.5 9.96945V9.96951M20.5 9.96951V9.96957M20.5 9.96951V9.96957M20.5 9.96957V9.96964M20.5 9.96957V9.96964M20.5 9.96964V9.9697M20.5 9.96964V9.9697M20.5 9.9697V9.96976M20.5 9.9697V9.96976M20.5 9.96976V9.96983M20.5 9.96976V9.96983M20.5 9.96983V9.96989M20.5 9.96983V9.96989M20.5 9.96989V9.96995M20.5 9.96989V9.96995M20.5 9.96995V9.97001M20.5 9.96995V9.97001M20.5 9.97001V9.97008M20.5 9.97001V9.97008M20.5 9.97008V9.97014M20.5 9.97008V9.97014M20.5 9.97014V9.9702M20.5 9.97014V9.9702M20.5 9.9702V9.97027M20.5 9.9702V9.97027M20.5 9.97027V9.97033M20.5 9.97027V9.97033M20.5 9.97033V9.97039M20.5 9.97033V9.97039M20.5 9.97039V9.97046M20.5 9.97039V9.97046M20.5 9.97046V9.97052M20.5 9.97046V9.97052M20.5 9.97052V9.97058M20.5 9.97052V9.97058M20.5 9.97058V9.97065M20.5 9.97058V9.97065M20.5 9.97065V9.97071M20.5 9.97065V9.97071M20.5 9.97071V9.97078M20.5 9.97071V9.97078M20.5 9.97078V9.97084M20.5 9.97078V9.97084M20.5 9.97084V9.9709M20.5 9.97084V9.9709M20.5 9.9709V9.97097M20.5 9.9709V9.97097M20.5 9.97097V9.97103M20.5 9.97097V9.97103M20.5 9.97103V9.9711M20.5 9.97103V9.9711M20.5 9.9711V9.97116M20.5 9.9711V9.97116M20.5 9.97116V9.97122M20.5 9.97116V9.97122M20.5 9.97122V9.97129M20.5 9.97122V9.97129M20.5 9.97129V9.97135M20.5 9.97129V9.97135M20.5 9.97135V9.97142M20.5 9.97135V9.97142M20.5 9.97142V9.97148M20.5 9.97142V9.97148M20.5 9.97148V9.97155M20.5 9.97148V9.97155M20.5 9.97155V9.97161M20.5 9.97155V9.97161M20.5 9.97161V9.97168M20.5 9.97161V9.97168M20.5 9.97168V9.97174M20.5 9.97168V9.97174M20.5 9.97174V9.97181M20.5 9.97174V9.97181M20.5 9.97181V9.97187M20.5 9.97181V9.97187M20.5 9.97187V9.97194M20.5 9.97187V9.97194M20.5 9.97194V9.972M20.5 9.97194V9.972M20.5 9.972V9.97207M20.5 9.972V9.97207M20.5 9.97207V9.97213M20.5 9.97207V9.97213M20.5 9.97213V9.9722M20.5 9.97213V9.9722M20.5 9.9722V9.97226M20.5 9.9722V9.97226M20.5 9.97226V9.97233M20.5 9.97226V9.97233M20.5 9.97233V9.97239M20.5 9.97233V9.97239M20.5 9.97239V9.97246M20.5 9.97239V9.97246M20.5 9.97246V9.97252M20.5 9.97246V9.97252M20.5 9.97252V9.97259M20.5 9.97252V9.97259M20.5 9.97259V9.97266M20.5 9.97259V9.97266M20.5 9.97266V9.97272M20.5 9.97266V9.97272M20.5 9.97272V9.97279M20.5 9.97272V9.97279M20.5 9.97279V9.97285M20.5 9.97279V9.97285M20.5 9.97285V9.97292M20.5 9.97285V9.97292M20.5 9.97292V9.97298M20.5 9.97292V9.97298M20.5 9.97298V9.97305M20.5 9.97298V9.97305M20.5 9.97305V9.97312M20.5 9.97305V9.97312M20.5 9.97312V9.97318M20.5 9.97312V9.97318M20.5 9.97318V9.97325M20.5 9.97318V9.97325M20.5 9.97325V9.97332M20.5 9.97325V9.97332M20.5 9.97332V9.97338M20.5 9.97332V9.97338M20.5 9.97338V9.97345M20.5 9.97338V9.97345M20.5 9.97345V9.97352M20.5 9.97345V9.97352M20.5 9.97352V9.97358M20.5 9.97352V9.97358M20.5 9.97358V9.97365M20.5 9.97358V9.97365M20.5 9.97365V9.97372M20.5 9.97365V9.97372M20.5 9.97372V9.97378M20.5 9.97372V9.97378M20.5 9.97378V9.97385M20.5 9.97378V9.97385M20.5 9.97385V9.97392M20.5 9.97385V9.97392M20.5 9.97392V9.97398M20.5 9.97392V9.97398M20.5 9.97398V9.97405M20.5 9.97398V9.97405M20.5 9.97405V9.97412M20.5 9.97405V9.97412M20.5 9.97412V9.97418M20.5 9.97412V9.97418M20.5 9.97418V9.97425M20.5 9.97418V9.97425M20.5 9.97425V9.97432M20.5 9.97425V9.97432M20.5 9.97432V9.97439M20.5 9.97432V9.97439M20.5 9.97439V9.97445M20.5 9.97439V9.97445M20.5 9.97445V9.97452M20.5 9.97445V9.97452M20.5 9.97452V9.97459M20.5 9.97452V9.97459M20.5 9.97459V9.97466M20.5 9.97459V9.97466M20.5 9.97466V9.97472M20.5 9.97466V9.97472M20.5 9.97472V9.97479M20.5 9.97472V9.97479M20.5 9.97479V9.97486M20.5 9.97479V9.97486M20.5 9.97486V9.97493M20.5 9.97486V9.97493M20.5 9.97493V9.97499M20.5 9.97493V9.97499M20.5 9.97499V9.97506M20.5 9.97499V9.97506M20.5 9.97506V9.97513M20.5 9.97506V9.97513M20.5 9.97513V9.9752M20.5 9.97513V9.9752M20.5 9.9752V9.97527M20.5 9.9752V9.97527M20.5 9.97527V9.97533M20.5 9.97527V9.97533M20.5 9.97533V9.9754M20.5 9.97533V9.9754M20.5 9.9754V9.97547M20.5 9.9754V9.97547M20.5 9.97547V9.97554M20.5 9.97547V9.97554M20.5 9.97554V9.97561M20.5 9.97554V9.97561M20.5 9.97561V9.97567M20.5 9.97561V9.97567M20.5 9.97567V9.97574M20.5 9.97567V9.97574M20.5 9.97574V9.97581M20.5 9.97574V9.97581M20.5 9.97581V9.97588M20.5 9.97581V9.97588M20.5 9.97588V9.97595M20.5 9.97588V9.97595M20.5 9.97595V9.97602M20.5 9.97595V9.97602M20.5 9.97602V9.97609M20.5 9.97602V9.97609M20.5 9.97609V9.97615M20.5 9.97609V9.97615M20.5 9.97615V9.97622M20.5 9.97615V9.97622M20.5 9.97622V9.97629M20.5 9.97622V9.97629M20.5 9.97629V9.97636M20.5 9.97629V9.97636M20.5 9.97636V9.97643M20.5 9.97636V9.97643M20.5 9.97643V9.9765M20.5 9.97643V9.9765M20.5 9.9765V9.97657M20.5 9.9765V9.97657M20.5 9.97657V9.97664M20.5 9.97657V9.97664M20.5 9.97664V9.97671M20.5 9.97664V9.97671M20.5 9.97671V9.97678M20.5 9.97671V9.97678M20.5 9.97678V9.97684M20.5 9.97678V9.97684M20.5 9.97684V9.97691M20.5 9.97684V9.97691M20.5 9.97691V9.97698M20.5 9.97691V9.97698M20.5 9.97698V9.97705M20.5 9.97698V9.97705M20.5 9.97705V9.97712M20.5 9.97705V9.97712M20.5 9.97712V9.97719M20.5 9.97712V9.97719M20.5 9.97719V9.97726M20.5 9.97719V9.97726M20.5 9.97726V9.97733M20.5 9.97726V9.97733M20.5 9.97733V9.9774M20.5 9.97733V9.9774M20.5 9.9774V9.97747M20.5 9.9774V9.97747M20.5 9.97747V9.97754M20.5 9.97747V9.97754M20.5 9.97754V9.97761M20.5 9.97754V9.97761M20.5 9.97761V9.97768M20.5 9.97761V9.97768M20.5 9.97768V9.97775M20.5 9.97768V9.97775M20.5 9.97775V9.97782M20.5 9.97775V9.97782M20.5 9.97782V9.97789M20.5 9.97782V9.97789M20.5 9.97789V9.97796M20.5 9.97789V9.97796M20.5 9.97796V9.97803M20.5 9.97796V9.97803M20.5 9.97803V9.9781M20.5 9.97803V9.9781M20.5 9.9781V9.97817M20.5 9.9781V9.97817M20.5 9.97817V9.97824M20.5 9.97817V9.97824M20.5 9.97824V9.97831M20.5 9.97824V9.97831M20.5 9.97831V9.97838M20.5 9.97831V9.97838M20.5 9.97838V9.97845M20.5 9.97838V9.97845M20.5 9.97845V9.97852M20.5 9.97845V9.97852M20.5 9.97852V9.97859M20.5 9.97852V9.97859M20.5 9.97859V9.97866M20.5 9.97859V9.97866M20.5 9.97866V9.97873M20.5 9.97866V9.97873M20.5 9.97873V9.9788M20.5 9.97873V9.9788M20.5 9.9788V9.97887M20.5 9.9788V9.97887M20.5 9.97887V9.97894M20.5 9.97887V9.97894M20.5 9.97894V9.97901M20.5 9.97894V9.97901M20.5 9.97901V9.97908M20.5 9.97901V9.97908M20.5 9.97908V9.97916M20.5 9.97908V9.97916M20.5 9.97916V9.97923M20.5 9.97916V9.97923M20.5 9.97923V9.9793M20.5 9.97923V9.9793M20.5 9.9793V9.97937M20.5 9.9793V9.97937M20.5 9.97937V9.97944M20.5 9.97937V9.97944M20.5 9.97944V9.97951M20.5 9.97944V9.97951M20.5 9.97951V9.97958M20.5 9.97951V9.97958M20.5 9.97958V9.97965M20.5 9.97958V9.97965M20.5 9.97965V9.97972M20.5 9.97965V9.97972M20.5 9.97972V9.97979M20.5 9.97972V9.97979M20.5 9.97979V9.97987M20.5 9.97979V9.97987M20.5 9.97987V9.97994M20.5 9.97987V9.97994M20.5 9.97994V9.98001M20.5 9.97994V9.98001M20.5 9.98001V9.98008M20.5 9.98001V9.98008M20.5 9.98008V9.98015M20.5 9.98008V9.98015M20.5 9.98015V9.98022M20.5 9.98015V9.98022M20.5 9.98022V9.98029M20.5 9.98022V9.98029M20.5 9.98029V9.98037M20.5 9.98029V9.98037M20.5 9.98037V9.98044M20.5 9.98037V9.98044M20.5 9.98044V9.98051M20.5 9.98044V9.98051M20.5 9.98051V9.98058M20.5 9.98051V9.98058M20.5 9.98058V9.98065M20.5 9.98058V9.98065M20.5 9.98065V9.98072M20.5 9.98065V9.98072M20.5 9.98072V9.9808M20.5 9.98072V9.9808M20.5 9.9808V9.98087M20.5 9.9808V9.98087M20.5 9.98087V9.98094M20.5 9.98087V9.98094M20.5 9.98094V9.98101M20.5 9.98094V9.98101M20.5 9.98101V9.98108M20.5 9.98101V9.98108M20.5 9.98108V9.98115M20.5 9.98108V9.98115M20.5 9.98115V9.98123M20.5 9.98115V9.98123M20.5 9.98123V9.9813M20.5 9.98123V9.9813M20.5 9.9813V9.98137M20.5 9.9813V9.98137M20.5 9.98137V9.98144M20.5 9.98137V9.98144M20.5 9.98144V9.98151M20.5 9.98144V9.98151M20.5 9.98151V9.98159M20.5 9.98151V9.98159M20.5 9.98159V9.98166M20.5 9.98159V9.98166M20.5 9.98166V9.98173M20.5 9.98166V9.98173M20.5 9.98173V9.9818M20.5 9.98173V9.9818M20.5 9.9818V9.98188M20.5 9.9818V9.98188M20.5 9.98188V9.98195M20.5 9.98188V9.98195M20.5 9.98195V9.98202M20.5 9.98195V9.98202M20.5 9.98202V9.98209M20.5 9.98202V9.98209M20.5 9.98209V9.98217M20.5 9.98209V9.98217M20.5 9.98217V9.98224M20.5 9.98217V9.98224M20.5 9.98224V9.98231M20.5 9.98224V9.98231M20.5 9.98231V9.98238M20.5 9.98231V9.98238M20.5 9.98238V9.98246M20.5 9.98238V9.98246M20.5 9.98246V9.98253M20.5 9.98246V9.98253M20.5 9.98253V9.9826M20.5 9.98253V9.9826M20.5 9.9826V9.98267M20.5 9.9826V9.98267M20.5 9.98267V9.98275M20.5 9.98267V9.98275M20.5 9.98275V9.98282M20.5 9.98275V9.98282M20.5 9.98282V9.98289M20.5 9.98282V9.98289M20.5 9.98289V9.98296M20.5 9.98289V9.98296M20.5 9.98296V9.98304M20.5 9.98296V9.98304M20.5 9.98304V9.98311M20.5 9.98304V9.98311M20.5 9.98311V9.98318M20.5 9.98311V9.98318M20.5 9.98318V9.98326M20.5 9.98318V9.98326M20.5 9.98326V9.98333M20.5 9.98326V9.98333M20.5 9.98333V9.9834M20.5 9.98333V9.9834M20.5 9.9834V9.98348M20.5 9.9834V9.98348M20.5 9.98348V9.98355M20.5 9.98348V9.98355M20.5 9.98355V9.98362M20.5 9.98355V9.98362M20.5 9.98362V9.9837M20.5 9.98362V9.9837M20.5 9.9837V9.98377M20.5 9.9837V9.98377M20.5 9.98377V9.98384M20.5 9.98377V9.98384M20.5 9.98384V9.98391M20.5 9.98384V9.98391M20.5 9.98391V9.98399V9.98391ZM11.2616 2.31492L11.2616 2.31488L11.2616 2.31492Z" stroke="url(#paint1_linear_178_440)"/>
<defs>
<linearGradient id="paint0_linear_178_440" x1="3" y1="22.92" x2="21" y2="2.04" gradientUnits="userSpaceOnUse">
<stop stop-color="#C62222"/>
<stop offset="1" stop-color="#DC2626"/>
</linearGradient>
<linearGradient id="paint1_linear_178_440" x1="3" y1="22.92" x2="21" y2="2.04" gradientUnits="userSpaceOnUse">
<stop stop-color="#C62222"/>
<stop offset="0.0001" stop-color="#C62222"/>
<stop offset="1" stop-color="#DC2626"/>
</linearGradient>
</defs>
</svg>
